<svg width="28" height="18" viewBox="0 0 28 18" fill="none" xmlns="http://www.w3.org/2000/svg">
<path d="M26.6452 0H1.35484C0.995513 0 0.650905 0.149717 0.396823 0.416217C0.142742 0.682716 0 1.04417 0 1.42105V16.5789C0 16.9558 0.142742 17.3173 0.396823 17.5838C0.650905 17.8503 0.995513 18 1.35484 18H26.6452C27.0045 18 27.3491 17.8503 27.6032 17.5838C27.8573 17.3173 28 16.9558 28 16.5789V1.42105C28 1.04417 27.8573 0.682716 27.6032 0.416217C27.3491 0.149717 27.0045 0 26.6452 0ZM20.0076 15.1579H7.99242C7.72434 13.7939 7.08114 12.5423 6.14228 11.5575C5.20343 10.5728 4.01007 9.89815 2.70968 9.61697V8.38303C4.01007 8.10185 5.20343 7.42721 6.14228 6.44247C7.08114 5.45773 7.72434 4.20605 7.99242 2.84211H20.0076C20.2757 4.20605 20.9189 5.45773 21.8577 6.44247C22.7966 7.42721 23.9899 8.10185 25.2903 8.38303V9.61697C23.9899 9.89815 22.7966 10.5728 21.8577 11.5575C20.9189 12.5423 20.2757 13.7939 20.0076 15.1579ZM25.2903 5.44026C24.7198 5.22662 24.2016 4.88272 23.7732 4.43339C23.3448 3.98407 23.0169 3.44055 22.8132 2.84211H25.2903V5.44026ZM5.18677 2.84211C4.98309 3.44055 4.65521 3.98407 4.22682 4.43339C3.79843 4.88272 3.28024 5.22662 2.70968 5.44026V2.84211H5.18677ZM2.70968 12.5597C3.28024 12.7734 3.79843 13.1173 4.22682 13.5666C4.65521 14.0159 4.98309 14.5594 5.18677 15.1579H2.70968V12.5597ZM22.8132 15.1579C23.0169 14.5594 23.3448 14.0159 23.7732 13.5666C24.2016 13.1173 24.7198 12.7734 25.2903 12.5597V15.1579H22.8132ZM14 4.26316C13.1068 4.26316 12.2336 4.54097 11.491 5.06146C10.7483 5.58195 10.1695 6.32174 9.82764 7.18729C9.48583 8.05283 9.39639 9.00526 9.57065 9.92411C9.7449 10.843 10.175 11.687 10.8066 12.3495C11.4382 13.0119 12.2429 13.4631 13.1189 13.6458C13.995 13.8286 14.903 13.7348 15.7282 13.3763C16.5535 13.0178 17.2588 12.4106 17.755 11.6316C18.2513 10.8527 18.5161 9.93686 18.5161 9C18.5161 7.74371 18.0403 6.53888 17.1934 5.65055C16.3464 4.76222 15.1978 4.26316 14 4.26316ZM14 10.8947C13.6427 10.8947 13.2935 10.7836 12.9964 10.5754C12.6993 10.3672 12.4678 10.0713 12.3311 9.72509C12.1943 9.37887 12.1586 8.9979 12.2283 8.63036C12.298 8.26281 12.47 7.9252 12.7226 7.66022C12.9753 7.39524 13.2972 7.21478 13.6476 7.14167C13.998 7.06856 14.3612 7.10608 14.6913 7.24949C15.0214 7.3929 15.3035 7.63575 15.502 7.94734C15.7005 8.25893 15.8065 8.62526 15.8065 9C15.8065 9.50252 15.6161 9.98445 15.2774 10.3398C14.9386 10.6951 14.4791 10.8947 14 10.8947Z" fill="black"/>
</svg>
