<svg width="21" height="21" viewBox="0 0 21 21" fill="none" xmlns="http://www.w3.org/2000/svg">
<path d="M7 17V4.71599C6.99994 4.2382 7.17094 3.77617 7.48203 3.41353C7.79312 3.0509 8.22376 2.81161 8.696 2.73899L17.696 1.35399C17.981 1.31016 18.2721 1.32848 18.5494 1.40769C18.8267 1.48691 19.0836 1.62515 19.3024 1.81293C19.5212 2.00072 19.6969 2.23361 19.8173 2.49563C19.9377 2.75766 20 3.04262 20 3.33099V15" stroke="black" stroke-width="2" stroke-linecap="round" stroke-linejoin="round"/>
<path d="M7 8L20 6" stroke="black" stroke-width="2"/>
<path d="M7 17C7 17.7956 6.68393 18.5587 6.12132 19.1213C5.55871 19.6839 4.79565 20 4 20C3.20435 20 2.44129 19.6839 1.87868 19.1213C1.31607 18.5587 1 17.7956 1 17C1 15.343 2.343 15 4 15C5.657 15 7 15.343 7 17ZM20 15C20 15.7956 19.6839 16.5587 19.1213 17.1213C18.5587 17.6839 17.7956 18 17 18C16.2044 18 15.4413 17.6839 14.8787 17.1213C14.3161 16.5587 14 15.7956 14 15C14 13.343 15.343 13 17 13C18.657 13 20 13.343 20 15Z" stroke="black" stroke-width="2" stroke-linecap="round" stroke-linejoin="round"/>
</svg>
