<svg width="26" height="29" viewBox="0 0 26 29" fill="none" xmlns="http://www.w3.org/2000/svg">
<path d="M0 6.90942C0 6.30614 0.472333 5.81894 1.05444 5.81894H7.97044C7.97911 4.53298 8.112 2.77203 9.31667 1.55326C10.309 0.552539 11.6287 -0.00397259 13 2.13497e-05C14.3713 -0.00397259 15.691 0.552539 16.6833 1.55326C17.888 2.77203 18.0209 4.53298 18.0296 5.81894H24.9456C25.5277 5.81894 26 6.30767 26 6.90942C25.9989 7.05435 25.9707 7.19761 25.917 7.33097C25.8633 7.46433 25.7852 7.58515 25.6872 7.68649C25.5892 7.78783 25.4733 7.86769 25.346 7.92148C25.2187 7.97526 25.0826 8.00191 24.9456 7.99989H1.05444C0.917385 8.00191 0.781301 7.97526 0.654017 7.92148C0.526732 7.86769 0.410759 7.78783 0.312767 7.68649C0.214774 7.58515 0.136695 7.46433 0.0830185 7.33097C0.0293426 7.19761 0.00112898 7.05435 0 6.90942Z" fill="white"/>
<path fill-rule="evenodd" clip-rule="evenodd" d="M12.4232 29H13.5775C17.5533 29 19.5406 29 20.8349 27.7052C22.1264 26.4103 22.2578 24.2853 22.5221 20.0384L22.9035 13.9193C23.0464 11.6145 23.1178 10.4615 22.4707 9.73073C21.8221 9 20.7277 9 18.5377 9H7.46297C5.27289 9 4.17713 9 3.52997 9.73073C2.8828 10.4615 2.9528 11.6145 3.09709 13.9193L3.47854 20.0398C3.74283 24.2868 3.87427 26.4118 5.16717 27.7052C6.46007 29 8.44729 29 12.4232 29ZM10.4945 14.6617C10.4374 14.0274 9.91163 13.5656 9.32304 13.6284C8.73301 13.6913 8.30443 14.2569 8.363 14.8911L9.07731 22.5828C9.13446 23.217 9.66019 23.6788 10.2488 23.616C10.8388 23.5517 11.2674 22.9876 11.2088 22.3533L10.4945 14.6617ZM16.679 13.6284C17.2676 13.6913 17.6976 14.2569 17.6376 14.8911L16.9233 22.5828C16.8662 23.217 16.339 23.6788 15.7518 23.616C15.1618 23.5517 14.7332 22.9876 14.7918 22.3533L15.5061 14.6602C15.5633 14.0274 16.0904 13.5641 16.6776 13.627" fill="white"/>
</svg>
