<svg width="21" height="22" viewBox="0 0 21 22" fill="none" xmlns="http://www.w3.org/2000/svg">
<path fill-rule="evenodd" clip-rule="evenodd" d="M19.4695 0.633131C19.8358 0.641098 20.1849 0.790167 20.444 1.04925C20.7031 1.30834 20.8521 1.65744 20.8601 2.02376C21.0095 3.85298 20.789 5.69355 20.2118 7.43575C19.6347 9.17795 18.7127 10.7861 17.5007 12.1644L14.532 14.7113L15.3132 18.4613C15.369 18.717 15.3595 18.9827 15.2858 19.2339C15.2121 19.485 15.0765 19.7137 14.8914 19.8988L13.8289 20.9613C13.6635 21.1234 13.4642 21.2468 13.2453 21.3225C13.0264 21.3981 12.7934 21.4242 12.5632 21.3988C12.3301 21.3757 12.1052 21.3006 11.905 21.1789C11.7049 21.0572 11.5347 20.892 11.407 20.6956L9.34449 17.4769L9.21949 17.2738L4.14136 12.2738L4.01636 12.1488L0.797611 10.0863C0.601238 9.95856 0.436087 9.78834 0.314379 9.5882C0.192671 9.38806 0.117521 9.16311 0.0944862 8.93001V8.75813C0.0962124 8.34822 0.258949 7.95541 0.547611 7.66438L1.61011 6.60188C1.7952 6.41678 2.02383 6.28114 2.275 6.20743C2.52618 6.13371 2.79184 6.12428 3.04761 6.18001L6.78199 6.96126L9.25074 4.08626C10.6328 2.85084 12.2507 1.908 14.0069 1.31454C15.7631 0.721085 17.6213 0.489294 19.4695 0.633131ZM12.9226 16.6019L13.3601 18.6644L12.7976 19.1644L11.7507 17.6019L12.9226 16.6019ZM3.82886 9.74251L2.26636 8.69563L2.76636 8.13313L4.82886 8.57063L3.82886 9.74251ZM5.78199 11.1488L10.6882 5.39876C12.9647 3.44017 15.9078 2.43304 18.907 2.58626C19.0667 5.58634 18.0588 8.53177 16.0945 10.805L10.3445 15.7113L5.78199 11.1488Z" fill="white"/>
<path fill-rule="evenodd" clip-rule="evenodd" d="M6.20386 19.3519C5.37611 20.1435 4.32186 20.657 3.18824 20.8206C2.6211 20.9203 2.04468 20.957 1.46949 20.93H0.563236V19.68C0.564648 19.2189 0.606474 18.7588 0.688236 18.305C0.845711 17.1695 1.36006 16.1134 2.15699 15.2894C2.7005 14.8059 3.41341 14.5575 4.13966 14.5985C4.86591 14.6395 5.54634 14.9666 6.03199 15.5081C6.55759 15.9991 6.86994 16.6764 6.90207 17.3949C6.9342 18.1135 6.68355 18.816 6.20386 19.3519ZM2.56324 18.6019C2.66022 17.8632 2.98837 17.174 3.50074 16.6331C3.68963 16.5163 3.91697 16.4787 4.13343 16.5284C4.34989 16.5781 4.53801 16.7112 4.65699 16.8988C4.76024 16.9922 4.84382 17.1052 4.90285 17.2313C4.96187 17.3574 4.99515 17.494 5.00074 17.6331C5.00581 17.7691 4.9614 17.9024 4.87574 18.0081C4.33482 18.5205 3.6457 18.8486 2.90699 18.9456H2.56324V18.6019Z" fill="#FF9900"/>
</svg>
